<svg viewBox="0 0 40 40" xmlns="http://www.w3.org/2000/svg">
  <!-- AssetMind mark: flat gear (blue) + circuit/brain node cluster (orange). No gradients. -->
  <g fill="#5a9de0">
    <rect x="17" y="0" width="6" height="6" rx="1"/>
    <rect x="17" y="0" width="6" height="6" rx="1" transform="rotate(45 20 20)"/>
    <rect x="17" y="0" width="6" height="6" rx="1" transform="rotate(90 20 20)"/>
    <rect x="17" y="0" width="6" height="6" rx="1" transform="rotate(135 20 20)"/>
    <rect x="17" y="0" width="6" height="6" rx="1" transform="rotate(180 20 20)"/>
    <rect x="17" y="0" width="6" height="6" rx="1" transform="rotate(225 20 20)"/>
    <rect x="17" y="0" width="6" height="6" rx="1" transform="rotate(270 20 20)"/>
    <rect x="17" y="0" width="6" height="6" rx="1" transform="rotate(315 20 20)"/>
    <circle cx="20" cy="20" r="13"/>
  </g>
  <circle cx="20" cy="20" r="9" fill="#10141a"/>
  <g stroke="#e8a33d" stroke-width="1.7" stroke-linecap="round">
    <line x1="20" y1="15.5" x2="20" y2="24.5"/>
    <line x1="15.5" y1="20" x2="24.5" y2="20"/>
  </g>
  <g fill="#e8a33d">
    <circle cx="20" cy="20" r="2.4"/>
    <circle cx="20" cy="15.5" r="1.4"/>
    <circle cx="20" cy="24.5" r="1.4"/>
    <circle cx="15.5" cy="20" r="1.4"/>
    <circle cx="24.5" cy="20" r="1.4"/>
  </g>
</svg>
